<svg width="3161" height="1309" viewBox="0 0 3161 1309" fill="none" xmlns="http://www.w3.org/2000/svg">
<g clip-path="url(#clip0_103_985)">
<rect width="3160.47" height="1309" fill="#001D32"/>
<rect x="-3" y="-81" width="3166" height="1472" fill="url(#paint0_linear_103_985)"/>
<rect opacity="0.4" width="56.4088" height="112.616" transform="matrix(-0.866025 0.5 0.866025 0.5 658.852 388)" fill="#001829"/>
<rect width="537.852" height="535.092" transform="matrix(0.866025 0.5 -0.866025 0.5 2487.4 889)" fill="url(#paint1_linear_103_985)"/>
<rect opacity="0.4" width="56.2257" height="229.185" transform="matrix(0.866025 0.5 -0.866025 0.5 1706.48 1165.82)" fill="#001829"/>
<rect opacity="0.4" width="56.2257" height="344.11" transform="matrix(0.866025 0.5 -0.866025 0.5 1407.62 -103)" fill="#001829"/>
<rect width="537.852" height="535.092" transform="matrix(0.866025 0.5 -0.866025 0.5 1573.4 757)" fill="url(#paint2_linear_103_985)"/>
<rect width="537.852" height="535.092" transform="matrix(0.866025 0.5 -0.866025 0.5 1573.4 757)" fill="url(#paint3_linear_103_985)"/>
<rect width="537.852" height="535.092" transform="matrix(0.866025 0.5 -0.866025 0.5 3041.4 566)" fill="url(#paint4_linear_103_985)"/>
<rect width="537.852" height="535.092" transform="matrix(0.866025 0.5 -0.866025 0.5 3041.4 566)" fill="url(#paint5_linear_103_985)"/>
<rect width="537.852" height="535.092" transform="matrix(0.866025 0.5 -0.866025 0.5 2701.4 50)" fill="url(#paint6_linear_103_985)"/>
<rect width="537.852" height="535.092" transform="matrix(0.866025 0.5 -0.866025 0.5 2701.4 50)" fill="url(#paint7_linear_103_985)"/>
<rect width="537.852" height="535.092" transform="matrix(0.866025 0.5 -0.866025 0.5 3539.4 994)" fill="url(#paint8_linear_103_985)"/>
<rect width="537.852" height="535.092" transform="matrix(0.866025 0.5 -0.866025 0.5 3539.4 994)" fill="url(#paint9_linear_103_985)"/>
<g opacity="0.1">
<path d="M318.641 -226L-2703 1518.55" stroke="white"/>
<path d="M418.641 -226L-2603 1518.55" stroke="white"/>
<path d="M518.641 -226L-2503 1518.55" stroke="white"/>
<path d="M618.641 -226L-2403 1518.55" stroke="white"/>
<path d="M718.641 -226L-2303 1518.55" stroke="white"/>
<path d="M818.641 -226L-2203 1518.55" stroke="white"/>
<path d="M918.641 -226L-2103 1518.55" stroke="white"/>
<path d="M1018.64 -226L-2003 1518.55" stroke="white"/>
<path d="M1118.64 -226L-1903 1518.55" stroke="white"/>
<path d="M1218.64 -226L-1803 1518.55" stroke="white"/>
<path d="M1318.64 -226L-1703 1518.55" stroke="white"/>
<path d="M1418.64 -226L-1603 1518.55" stroke="white"/>
<path d="M1518.64 -226L-1503 1518.55" stroke="white"/>
<path d="M1618.64 -226L-1403 1518.55" stroke="white"/>
<path d="M1718.64 -226L-1303 1518.55" stroke="white"/>
<path d="M1818.64 -226L-1203 1518.55" stroke="white"/>
<path d="M1918.64 -226L-1103 1518.55" stroke="white"/>
<path d="M2018.64 -226L-1003 1518.55" stroke="white"/>
<path d="M2118.64 -226L-903 1518.55" stroke="white"/>
<path d="M2218.64 -226L-803 1518.55" stroke="white"/>
<path d="M2318.64 -226L-703 1518.55" stroke="white"/>
<path d="M2418.64 -226L-603 1518.55" stroke="white"/>
<path d="M2518.64 -226L-503 1518.55" stroke="white"/>
<path d="M2618.64 -226L-403 1518.55" stroke="white"/>
<path d="M2718.64 -226L-303 1518.55" stroke="white"/>
<path d="M2818.64 -226L-203 1518.55" stroke="white"/>
<path d="M2918.64 -226L-103 1518.55" stroke="white"/>
<path d="M3018.64 -226L-2.99982 1518.55" stroke="white"/>
<path d="M3118.64 -226L97.0002 1518.55" stroke="white"/>
<path d="M3218.64 -226L197 1518.55" stroke="white"/>
<path d="M3318.64 -226L297 1518.55" stroke="white"/>
<path d="M3418.64 -226L397 1518.55" stroke="white"/>
<path d="M3518.64 -226L497 1518.55" stroke="white"/>
<path d="M3618.64 -226L597 1518.55" stroke="white"/>
<path d="M3718.64 -226L697 1518.55" stroke="white"/>
<path d="M3818.64 -226L797 1518.55" stroke="white"/>
<path d="M3918.64 -226L897 1518.55" stroke="white"/>
<path d="M4018.64 -226L997 1518.55" stroke="white"/>
<path d="M4118.64 -226L1097 1518.55" stroke="white"/>
<path d="M4218.64 -226L1197 1518.55" stroke="white"/>
<path d="M4318.64 -226L1297 1518.55" stroke="white"/>
<path d="M4418.64 -226L1397 1518.55" stroke="white"/>
<path d="M4518.64 -226L1497 1518.55" stroke="white"/>
<path d="M4618.64 -226L1597 1518.55" stroke="white"/>
<path d="M4718.64 -226L1697 1518.55" stroke="white"/>
<path d="M4818.64 -226L1797 1518.55" stroke="white"/>
<path d="M4918.64 -226L1897 1518.55" stroke="white"/>
<path d="M5018.64 -226L1997 1518.55" stroke="white"/>
<path d="M5118.64 -226L2097 1518.55" stroke="white"/>
<path d="M5218.64 -226L2197 1518.55" stroke="white"/>
<path d="M5318.64 -226L2297 1518.55" stroke="white"/>
<path d="M5418.64 -226L2397 1518.55" stroke="white"/>
<path d="M5518.64 -226L2497 1518.55" stroke="white"/>
<path d="M5618.64 -226L2597 1518.55" stroke="white"/>
<path d="M5718.64 -226L2697 1518.55" stroke="white"/>
<path d="M5818.64 -226L2797 1518.55" stroke="white"/>
<path d="M2797 -226L5818.64 1518.55" stroke="white"/>
<path d="M2697 -226L5718.64 1518.55" stroke="white"/>
<path d="M2597 -226L5618.64 1518.55" stroke="white"/>
<path d="M2497 -226L5518.64 1518.55" stroke="white"/>
<path d="M2397 -226L5418.64 1518.55" stroke="white"/>
<path d="M2297 -226L5318.64 1518.55" stroke="white"/>
<path d="M2197 -226L5218.64 1518.55" stroke="white"/>
<path d="M2097 -226L5118.64 1518.55" stroke="white"/>
<path d="M1997 -226L5018.64 1518.55" stroke="white"/>
<path d="M1897 -226L4918.64 1518.55" stroke="white"/>
<path d="M1797 -226L4818.64 1518.55" stroke="white"/>
<path d="M1697 -226L4718.64 1518.55" stroke="white"/>
<path d="M1597 -226L4618.64 1518.55" stroke="white"/>
<path d="M1497 -226L4518.64 1518.55" stroke="white"/>
<path d="M1397 -226L4418.64 1518.55" stroke="white"/>
<path d="M1297 -226L4318.64 1518.55" stroke="white"/>
<path d="M1197 -226L4218.64 1518.55" stroke="white"/>
<path d="M1097 -226L4118.64 1518.55" stroke="white"/>
<path d="M997 -226L4018.64 1518.55" stroke="white"/>
<path d="M897 -226L3918.64 1518.55" stroke="white"/>
<path d="M797 -226L3818.64 1518.55" stroke="white"/>
<path d="M697 -226L3718.64 1518.55" stroke="white"/>
<path d="M597 -226L3618.64 1518.55" stroke="white"/>
<path d="M497 -226L3518.64 1518.55" stroke="white"/>
<path d="M397 -226L3418.64 1518.55" stroke="white"/>
<path d="M297 -226L3318.64 1518.55" stroke="white"/>
<path d="M197 -226L3218.64 1518.55" stroke="white"/>
<path d="M97 -226L3118.64 1518.55" stroke="white"/>
<path d="M-3 -226L3018.64 1518.55" stroke="white"/>
<path d="M-103 -226L2918.64 1518.55" stroke="white"/>
<path d="M-203 -226L2818.64 1518.55" stroke="white"/>
<path d="M-303 -226L2718.64 1518.55" stroke="white"/>
<path d="M-403 -226L2618.64 1518.55" stroke="white"/>
<path d="M-503 -226L2518.64 1518.55" stroke="white"/>
<path d="M-603 -226L2418.64 1518.55" stroke="white"/>
<path d="M-703 -226L2318.64 1518.55" stroke="white"/>
<path d="M-803 -226L2218.64 1518.55" stroke="white"/>
<path d="M-903 -226L2118.64 1518.55" stroke="white"/>
<path d="M-1003 -226L2018.64 1518.55" stroke="white"/>
<path d="M-1103 -226L1918.64 1518.55" stroke="white"/>
<path d="M-1203 -226L1818.64 1518.55" stroke="white"/>
<path d="M-1303 -226L1718.64 1518.55" stroke="white"/>
<path d="M-1403 -226L1618.64 1518.55" stroke="white"/>
<path d="M-1503 -226L1518.64 1518.55" stroke="white"/>
<path d="M-1603 -226L1418.64 1518.55" stroke="white"/>
<path d="M-1703 -226L1318.64 1518.55" stroke="white"/>
<path d="M-1803 -226L1218.64 1518.55" stroke="white"/>
<path d="M-1903 -226L1118.64 1518.55" stroke="white"/>
<path d="M-2003 -226L1018.64 1518.55" stroke="white"/>
<path d="M-2103 -226L918.64 1518.55" stroke="white"/>
<path d="M-2203 -226L818.64 1518.55" stroke="white"/>
<path d="M-2303 -226L718.64 1518.55" stroke="white"/>
<path d="M-2403 -226L618.64 1518.55" stroke="white"/>
<path d="M-2503 -226L518.64 1518.55" stroke="white"/>
<path d="M-2603 -226L418.64 1518.55" stroke="white"/>
<path d="M-2703 -226L318.64 1518.55" stroke="white"/>
</g>
<rect x="-5.96046e-08" y="1" width="535.852" height="533.092" transform="matrix(0.866025 0.5 -0.866025 0.5 2079.58 612.5)" fill="#082447" stroke="url(#paint10_linear_103_985)" stroke-width="2"/>
<rect width="538.117" height="39.6205" transform="matrix(0.866025 -0.5 2.20305e-08 1 2080.79 1148.36)" fill="#19326F"/>
<path d="M2080.17 1148.47L1615 879.908L1615 919.358L2080.17 1187.92L2080.17 1148.47Z" fill="#294099"/>
<rect x="-5.96046e-08" y="1" width="535.852" height="533.092" transform="matrix(0.866025 0.5 -0.866025 0.5 2634.87 291.5)" fill="#082447"/>
<rect x="-5.96046e-08" y="1" width="535.852" height="533.092" transform="matrix(0.866025 0.5 -0.866025 0.5 2634.87 291.5)" fill="url(#paint11_linear_103_985)"/>
<rect x="-5.96046e-08" y="1" width="535.852" height="533.092" transform="matrix(0.866025 0.5 -0.866025 0.5 2634.87 291.5)" stroke="url(#paint12_linear_103_985)" stroke-width="2"/>
<rect width="538.117" height="39.6205" transform="matrix(0.866025 -0.5 2.20305e-08 1 2636.79 827.356)" fill="#19326F"/>
<path d="M2636.17 827.474L2171 558.908L2171 598.358L2636.17 866.924L2636.17 827.474Z" fill="#294099"/>
<rect x="-5.96046e-08" y="1" width="535.852" height="533.092" transform="matrix(0.866025 0.5 -0.866025 0.5 3191.58 -29.5)" fill="#082447"/>
<rect x="-5.96046e-08" y="1" width="535.852" height="533.092" transform="matrix(0.866025 0.5 -0.866025 0.5 3191.58 -29.5)" fill="url(#paint13_linear_103_985)"/>
<rect x="-5.96046e-08" y="1" width="535.852" height="533.092" transform="matrix(0.866025 0.5 -0.866025 0.5 3191.58 -29.5)" stroke="url(#paint14_linear_103_985)" stroke-width="2"/>
<path d="M3192.17 506.474L2727 237.908L2727 277.358L3192.17 545.924L3192.17 506.474Z" fill="#294099"/>
<rect x="-5.96046e-08" y="1" width="535.852" height="533.092" transform="matrix(0.866025 0.5 -0.866025 0.5 2573.58 1038.5)" fill="#082447"/>
<rect x="-5.96046e-08" y="1" width="535.852" height="533.092" transform="matrix(0.866025 0.5 -0.866025 0.5 2573.58 1038.5)" fill="url(#paint15_linear_103_985)"/>
<rect x="-5.96046e-08" y="1" width="535.852" height="533.092" transform="matrix(0.866025 0.5 -0.866025 0.5 2573.58 1038.5)" stroke="url(#paint16_linear_103_985)" stroke-width="2"/>
<rect width="538.117" height="39.6205" transform="matrix(0.866025 -0.5 2.20305e-08 1 2574.79 1574.36)" fill="#19326F"/>
<path d="M2574.17 1574.47L2109 1305.91L2109 1345.36L2574.17 1613.92L2574.17 1574.47Z" fill="#294099"/>
<rect x="-5.96046e-08" y="1" width="535.852" height="533.092" transform="matrix(0.866025 0.5 -0.866025 0.5 3129.58 717.5)" fill="#082447"/>
<rect x="-5.96046e-08" y="1" width="535.852" height="533.092" transform="matrix(0.866025 0.5 -0.866025 0.5 3129.58 717.5)" fill="url(#paint17_linear_103_985)"/>
<rect x="-5.96046e-08" y="1" width="535.852" height="533.092" transform="matrix(0.866025 0.5 -0.866025 0.5 3129.58 717.5)" stroke="url(#paint18_linear_103_985)" stroke-width="2"/>
<rect width="538.117" height="39.6205" transform="matrix(0.866025 -0.5 2.20305e-08 1 3130.79 1253.36)" fill="#19326F"/>
<path d="M3130.17 1253.47L2665 984.908L2665 1024.36L3130.17 1292.92L3130.17 1253.47Z" fill="#294099"/>
<rect x="-5.96046e-08" y="1" width="535.852" height="533.092" transform="matrix(0.866025 0.5 -0.866025 0.5 1764.58 110.5)" fill="#082447" stroke="url(#paint19_linear_103_985)" stroke-width="2"/>
<rect width="538.117" height="39.6205" transform="matrix(0.866025 -0.5 2.20305e-08 1 1765.79 646.356)" fill="#19326F"/>
<path d="M1765.17 646.474L1300 377.908L1300 417.358L1765.17 685.924L1765.17 646.474Z" fill="#294099"/>
<rect x="-5.96046e-08" y="1" width="535.852" height="533.092" transform="matrix(0.866025 0.5 -0.866025 0.5 2319.87 -210.5)" fill="#082447"/>
<rect x="-5.96046e-08" y="1" width="535.852" height="533.092" transform="matrix(0.866025 0.5 -0.866025 0.5 2319.87 -210.5)" fill="url(#paint20_linear_103_985)"/>
<rect x="-5.96046e-08" y="1" width="535.852" height="533.092" transform="matrix(0.866025 0.5 -0.866025 0.5 2319.87 -210.5)" stroke="url(#paint21_linear_103_985)" stroke-width="2"/>
<rect width="538.117" height="39.6205" transform="matrix(0.866025 -0.5 2.20305e-08 1 2321.79 325.356)" fill="#19326F"/>
<path d="M2321.17 325.474L1856 56.9081L1856 96.3582L2321.17 364.924L2321.17 325.474Z" fill="#294099"/>
<rect x="-5.96046e-08" y="1" width="535.852" height="533.092" transform="matrix(0.866025 0.5 -0.866025 0.5 1148.58 471.5)" fill="#082447" stroke="url(#paint22_linear_103_985)" stroke-width="2"/>
<rect width="538.117" height="39.6205" transform="matrix(0.866025 -0.5 2.20305e-08 1 1149.79 1007.36)" fill="#19326F"/>
<path d="M1149.17 1007.47L684 738.908L684 778.358L1149.17 1046.92L1149.17 1007.47Z" fill="#294099"/>
<path d="M1535.18 132.994L1450 374.5L1831 462L1919.69 204.067C1921.69 198.256 1918.03 192.035 1911.98 190.967L1546.35 126.473C1541.53 125.623 1536.81 128.382 1535.18 132.994Z" fill="#00E3B4"/>
<g filter="url(#filter0_f_103_985)">
<path d="M1535.18 132.994L1450 374.5L1831 462L1919.69 204.067C1921.69 198.256 1918.03 192.035 1911.98 190.967L1546.35 126.473C1541.53 125.623 1536.81 128.382 1535.18 132.994Z" fill="#00E3B4"/>
</g>
<g filter="url(#filter1_f_103_985)">
<path d="M1385.98 788.462L1860.95 833.25C1954.95 671.865 2075.64 744.908 2126.94 782.958C2182.94 824.493 2198.44 848.012 2222.44 900.807C2246.44 953.601 2263.93 1000.64 2176.94 1013.65C2123.11 1021.7 2072.44 1008.4 2064.94 983.876C2058.94 964.26 2038.45 951.015 2028.95 946.845C1937.95 907.812 1899.95 954.351 1820.46 965.861C1740.96 977.371 1533.97 951.849 1372.98 929.581C1211.99 907.312 1278.48 855.018 1177.49 853.517C1076.49 852.016 1086.49 899.055 1008.5 888.296C972.809 883.373 957.554 874.233 952.499 865.499C936.727 838.249 939.766 804.626 963.935 784.448C1081.16 686.584 1380.94 641.253 1396.48 663.608C1400.48 669.362 1414.42 699.905 1417.29 704.892C1430.06 727.065 1397.13 768.853 1385.98 788.462Z" fill="#001D32"/>
</g>
<path d="M1386 560.5L1861 650C1955 327.5 2075.7 473.464 2127 549.5C2183 632.5 2198.5 679.5 2222.5 785C2246.5 890.5 2264 984.499 2177 1010.5C2123.17 1026.59 2078.46 998.708 2065 950.999C2054 912 2038.5 885.333 2029 876.999C1938 798.999 1900 891.999 1820.5 914.999C1741 937.999 1534 887 1373 842.5C1212 798 1278.5 693.5 1177.5 690.5C1076.5 687.5 1086.5 781.5 1008.5 760C972.811 750.162 957.555 731.896 952.5 714.444C948.717 701.382 933.5 642.5 931 625.5C1007 380 1379.14 261.093 1396.5 311C1400.5 322.5 1414.45 383.533 1417.32 393.5C1430.09 437.809 1397.16 521.314 1386 560.5Z" fill="url(#paint23_linear_103_985)"/>
<path d="M1386 560.5L1861 650C1955 327.5 2075.7 473.464 2127 549.5C2183 632.5 2198.5 679.5 2222.5 785C2246.5 890.5 2264 984.499 2177 1010.5C2123.17 1026.59 2078.46 998.708 2065 950.999C2054 912 2038.5 885.333 2029 876.999C1938 798.999 1900 891.999 1820.5 914.999C1741 937.999 1534 887 1373 842.5C1212 798 1278.5 693.5 1177.5 690.5C1076.5 687.5 1086.5 781.5 1008.5 760C972.811 750.162 957.555 731.896 952.5 714.444C948.717 701.382 933.5 642.5 931 625.5C1007 380 1379.14 261.093 1396.5 311C1400.5 322.5 1414.45 383.533 1417.32 393.5C1430.09 437.809 1397.16 521.314 1386 560.5Z" fill="url(#paint24_linear_103_985)"/>
<mask id="mask0_103_985" style="mask-type:alpha" maskUnits="userSpaceOnUse" x="931" y="299" width="1312" height="716">
<path d="M1386 560.5L1861 650C1955 327.5 2075.7 473.464 2127 549.5C2183 632.5 2198.5 679.5 2222.5 785C2246.5 890.5 2264 984.499 2177 1010.5C2123.17 1026.59 2092.15 992.474 2065 950.999C2047 923.5 2038.5 885.333 2029 876.999C1938 798.999 1900 891.999 1820.5 914.999C1741 937.999 1534 887 1373 842.5C1212 798 1278.5 693.5 1177.5 690.5C1076.5 687.5 1086.5 781.5 1008.5 760C972.811 750.162 957.555 731.896 952.5 714.444C948.717 701.382 933.5 642.5 931 625.5C1007 380 1379.14 261.093 1396.5 311C1400.5 322.5 1414.45 383.533 1417.32 393.5C1430.09 437.809 1397.16 521.314 1386 560.5Z" fill="url(#paint25_linear_103_985)"/>
<path d="M1386 560.5L1861 650C1955 327.5 2075.7 473.464 2127 549.5C2183 632.5 2198.5 679.5 2222.5 785C2246.5 890.5 2264 984.499 2177 1010.5C2123.17 1026.59 2092.15 992.474 2065 950.999C2047 923.5 2038.5 885.333 2029 876.999C1938 798.999 1900 891.999 1820.5 914.999C1741 937.999 1534 887 1373 842.5C1212 798 1278.5 693.5 1177.5 690.5C1076.5 687.5 1086.5 781.5 1008.5 760C972.811 750.162 957.555 731.896 952.5 714.444C948.717 701.382 933.5 642.5 931 625.5C1007 380 1379.14 261.093 1396.5 311C1400.5 322.5 1414.45 383.533 1417.32 393.5C1430.09 437.809 1397.16 521.314 1386 560.5Z" fill="url(#paint26_linear_103_985)"/>
</mask>
<g mask="url(#mask0_103_985)">
<path d="M2046 876L2067.5 962L1747 978.5L1724.5 752.5H1935.5L2042.5 794.5L2046 876Z" fill="url(#paint27_linear_103_985)"/>
</g>
<path d="M1871.5 439.5L1397.5 506L1841 605L1891.5 459.5L1871.5 439.5Z" fill="url(#paint28_linear_103_985)"/>
<path d="M1422.5 360L1377.5 486L1821 585L1871.5 439.5L1422.5 360Z" fill="url(#paint29_linear_103_985)"/>
<path d="M1366 480.5L1841 570C1935 247.5 2055.7 393.464 2107 469.5C2163 552.5 2178.5 599.5 2202.5 705C2226.5 810.5 2244 904.5 2157 930.5C2103.17 946.586 2052.5 920 2045 871C2039 831.8 2018.5 805.333 2009 797C1918 719 1880 812 1800.5 835C1721 858 1514 807 1353 762.5C1192 718 1258.5 613.5 1157.5 610.5C1056.5 607.5 1066.5 701.5 988.5 680C926.1 662.8 926.166 619.833 934 600.5C1010 355 1335.91 262.947 1381 290.5C1426 318 1379.67 432.5 1366 480.5Z" fill="#5364FF"/>
<path d="M1366 480.5L1841 570C1935 247.5 2055.7 393.464 2107 469.5C2163 552.5 2178.5 599.5 2202.5 705C2226.5 810.5 2244 904.5 2157 930.5C2103.17 946.586 2052.5 920 2045 871C2039 831.8 2018.5 805.333 2009 797C1918 719 1880 812 1800.5 835C1721 858 1514 807 1353 762.5C1192 718 1258.5 613.5 1157.5 610.5C1056.5 607.5 1066.5 701.5 988.5 680C926.1 662.8 926.166 619.833 934 600.5C1010 355 1335.91 262.947 1381 290.5C1426 318 1379.67 432.5 1366 480.5Z" stroke="url(#paint30_linear_103_985)" stroke-width="2"/>
<path d="M1366 480.5L1841 570C1935 247.5 2055.7 393.464 2107 469.5C2163 552.5 2178.5 599.5 2202.5 705C2226.5 810.5 2244 904.5 2157 930.5C2103.17 946.586 2052.5 920 2045 871C2039 831.8 2018.5 805.333 2009 797C1918 719 1880 812 1800.5 835C1721 858 1514 807 1353 762.5C1192 718 1258.5 613.5 1157.5 610.5C1056.5 607.5 1066.5 701.5 988.5 680C926.1 662.8 926.166 619.833 934 600.5C1010 355 1335.91 262.947 1381 290.5C1426 318 1379.67 432.5 1366 480.5Z" stroke="url(#paint31_linear_103_985)" stroke-width="2"/>
<path d="M1280.15 581.004C1237.92 603.964 1188.94 599.806 1156.5 574.086C1146.91 564.5 1103.1 523.713 1097 512.5C1070.26 463.317 1128.61 432.638 1183.31 402.897C1226 379.69 1237.57 346.538 1270 373C1279.13 380.451 1324.9 427.293 1330.78 438.099C1357.52 487.282 1334.85 551.262 1280.15 581.004Z" fill="url(#paint32_linear_103_985)"/>
<ellipse cx="1191.73" cy="451.95" rx="101.365" ry="112.739" transform="rotate(61.4671 1191.73 451.95)" fill="url(#paint33_linear_103_985)"/>
<ellipse cx="1191.73" cy="451.95" rx="90.9565" ry="101.163" transform="rotate(61.4671 1191.73 451.95)" fill="#001D32"/>
<ellipse cx="1160.03" cy="420.422" rx="76.8602" ry="85.4845" transform="rotate(61.4671 1160.03 420.422)" fill="url(#paint34_linear_103_985)"/>
<g filter="url(#filter2_f_103_985)">
<ellipse cx="1160.03" cy="420.422" rx="55.061" ry="61.2394" transform="rotate(61.4671 1160.03 420.422)" fill="url(#paint35_linear_103_985)"/>
</g>
<g filter="url(#filter3_f_103_985)">
<ellipse cx="1160.03" cy="420.422" rx="38.5518" ry="42.8776" transform="rotate(61.4671 1160.03 420.422)" fill="url(#paint36_linear_103_985)"/>
</g>
<path d="M1991 692.5C1991 720.39 1965.93 743 1935 743C1920.87 743 1907.97 738.283 1898.12 730.5C1886.4 721.244 1859 696.5 1852.5 679C1852.5 651.11 1902.07 620.5 1933 620.5C1947.5 625.5 1968.51 649.419 1978.77 661C1986.43 669.636 1991 680.586 1991 692.5Z" fill="url(#paint37_linear_103_985)"/>
<ellipse cx="1905" cy="662.5" rx="56" ry="50.5" fill="#001D32"/>
<ellipse cx="1905" cy="662.5" rx="47" ry="42.5" fill="#00E3B4"/>
<ellipse cx="1905" cy="652.5" rx="47" ry="42.5" fill="url(#paint38_linear_103_985)"/>
<path d="M2124 721.5C2124 749.39 2098.93 772 2068 772C2053.87 772 2040.97 767.283 2031.12 759.5C2019.4 750.244 1992 725.5 1985.5 708C1985.5 680.11 2035.07 649.5 2066 649.5C2080.5 654.5 2101.51 678.419 2111.77 690C2119.43 698.636 2124 709.586 2124 721.5Z" fill="url(#paint39_linear_103_985)"/>
<ellipse cx="2038" cy="691.5" rx="56" ry="50.5" fill="#001D32"/>
<ellipse cx="2038" cy="691.5" rx="47" ry="42.5" fill="#00E3B4"/>
<ellipse cx="2038" cy="681.5" rx="47" ry="42.5" fill="url(#paint40_linear_103_985)"/>
<path d="M2025 566.5C2025 594.39 1999.93 617 1969 617C1954.87 617 1941.97 612.283 1932.12 604.5C1920.4 595.244 1893 570.5 1886.5 553C1886.5 525.11 1936.07 494.5 1967 494.5C1981.5 499.5 2002.51 523.419 2012.77 535C2020.43 543.636 2025 554.586 2025 566.5Z" fill="url(#paint41_linear_103_985)"/>
<ellipse cx="1939" cy="536.5" rx="56" ry="50.5" fill="#001D32"/>
<ellipse cx="1939" cy="536.5" rx="47" ry="42.5" fill="#00E3B4"/>
<ellipse cx="1939" cy="526.5" rx="47" ry="42.5" fill="url(#paint42_linear_103_985)"/>
<path d="M2158 595.5C2158 623.39 2132.93 646 2102 646C2087.87 646 2074.97 641.283 2065.12 633.5C2053.4 624.244 2026 599.5 2019.5 582C2019.5 554.11 2069.07 523.5 2100 523.5C2114.5 528.5 2135.51 552.419 2145.77 564C2153.43 572.636 2158 583.586 2158 595.5Z" fill="url(#paint43_linear_103_985)"/>
<ellipse cx="2072" cy="565.5" rx="56" ry="50.5" fill="#001D32"/>
<ellipse cx="2072" cy="565.5" rx="47" ry="42.5" fill="#00E3B4"/>
<ellipse cx="2072" cy="555.5" rx="47" ry="42.5" fill="url(#paint44_linear_103_985)"/>
<mask id="mask1_103_985" style="mask-type:alpha" maskUnits="userSpaceOnUse" x="930" y="285" width="1293" height="651">
<path d="M1366 480.5L1841 570C1935 247.5 2055.7 393.464 2107 469.5C2163 552.5 2178.5 599.5 2202.5 705C2226.5 810.5 2244 904.5 2157 930.5C2103.17 946.586 2052.5 920 2045 871C2039 831.8 2018.5 805.333 2009 797C1918 719 1880 812 1800.5 835C1721 858 1514 807 1353 762.5C1192 718 1258.5 613.5 1157.5 610.5C1056.5 607.5 1066.5 701.5 988.5 680C926.1 662.8 926.166 619.833 934 600.5C1010 355 1335.91 262.947 1381 290.5C1426 318 1379.67 432.5 1366 480.5Z" fill="#5364FF"/>
</mask>
<g mask="url(#mask1_103_985)">
<path d="M1366.5 479.5L1273 771L1751 869L1841 570L1366.5 479.5Z" fill="url(#paint45_linear_103_985)"/>
<path d="M1366.5 479.5L1273 771L1751 869L1841 570L1366.5 479.5Z" fill="url(#paint46_linear_103_985)"/>
</g>
<path d="M1472.5 687.5C1474.07 679.81 1501.17 688.635 1508.86 690.207L1598 694C1602.33 694.886 1621.91 715.375 1623.83 719C1625.32 721.81 1625.88 725.133 1625.2 728.491C1623.62 736.182 1616.11 741.142 1608.42 739.57L1503.16 718.057C1500.24 717.459 1497.71 716.001 1495.78 714C1492.5 710 1471.53 692.264 1472.5 687.5Z" fill="url(#paint47_linear_103_985)"/>
<rect x="1474.93" y="667.361" width="135.862" height="28.4258" rx="14.2129" transform="rotate(11.5511 1474.93 667.361)" fill="url(#paint48_linear_103_985)"/>
<rect x="1480.71" y="666.597" width="124" height="24" rx="12" transform="rotate(11.5511 1480.71 666.597)" fill="white"/>
<g filter="url(#filter4_f_103_985)">
<rect x="1480.71" y="666.597" width="124" height="24" rx="12" transform="rotate(11.5511 1480.71 666.597)" fill="white"/>
</g>
<rect x="1480.71" y="659.597" width="124" height="24" rx="12" transform="rotate(11.5511 1480.71 659.597)" fill="url(#paint49_linear_103_985)"/>
<path d="M2692.57 434.5L2792.57 429.742L3028.57 566L2847.5 672.782L2612.07 536.856L2622.57 499L2692.57 434.5Z" fill="url(#paint50_linear_103_985)"/>
<path d="M2815.05 546.803C2763.14 576.774 2678.97 576.774 2627.06 546.803C2601.75 532.19 2588.78 513.15 2588.15 494C2588.15 474 2588.15 474 2588.15 459.5C2640.06 429.529 2802 429.029 2853.91 459C2853.91 472.5 2853.91 471 2853.91 490C2855.08 510.477 2842.12 531.172 2815.05 546.803Z" fill="url(#paint51_linear_103_985)"/>
<circle r="108.535" transform="matrix(0.866025 0.5 -0.866025 0.5 2721.05 462.535)" fill="#001D32"/>
<circle r="108.035" transform="matrix(0.866025 0.5 -0.866025 0.5 2721.05 462.535)" stroke="#5364FF"/>
<circle r="91.8795" transform="matrix(0.866025 0.5 -0.866025 0.5 2721.05 462.535)" stroke="#5364FF"/>
<g filter="url(#filter5_f_103_985)">
<circle r="91.8795" transform="matrix(0.866025 0.5 -0.866025 0.5 2721.05 462.535)" stroke="#5364FF"/>
</g>
<g filter="url(#filter6_f_103_985)">
<circle r="91.8795" transform="matrix(0.866025 0.5 -0.866025 0.5 2721.05 462.535)" stroke="#5364FF"/>
</g>
<path d="M2480.57 559.5L2580.57 554.742L2816.57 691L2635.5 797.782L2400.07 661.856L2410.57 624L2480.57 559.5Z" fill="url(#paint52_linear_103_985)"/>
<path d="M2603.05 671.803C2551.14 701.774 2466.97 701.774 2415.06 671.803C2389.75 657.19 2376.78 638.15 2376.15 619C2376.15 599 2376.15 599 2376.15 584.5C2428.06 554.529 2590 554.029 2641.91 584C2641.91 597.5 2641.91 596 2641.91 615C2643.08 635.477 2630.12 656.172 2603.05 671.803Z" fill="url(#paint53_linear_103_985)"/>
<circle r="108.535" transform="matrix(0.866025 0.5 -0.866025 0.5 2509.05 587.535)" fill="#001D32"/>
<circle r="108.035" transform="matrix(0.866025 0.5 -0.866025 0.5 2509.05 587.535)" stroke="#5364FF"/>
<circle r="91.8795" transform="matrix(0.866025 0.5 -0.866025 0.5 2509.05 587.535)" stroke="#5364FF"/>
<g filter="url(#filter7_f_103_985)">
<circle r="91.8795" transform="matrix(0.866025 0.5 -0.866025 0.5 2509.05 587.535)" stroke="#5364FF"/>
</g>
<g filter="url(#filter8_f_103_985)">
<circle r="91.8795" transform="matrix(0.866025 0.5 -0.866025 0.5 2509.05 587.535)" stroke="#5364FF"/>
</g>
<path d="M2411.57 -53.5001L2511.57 -58.2577L2747.57 77.9999L2566.5 184.782L2331.07 48.8555L2341.57 10.9999L2411.57 -53.5001Z" fill="url(#paint54_linear_103_985)"/>
<path d="M2534.05 58.8028C2482.14 88.774 2397.97 88.774 2346.06 58.8028C2320.75 44.1898 2307.78 25.1499 2307.15 6.00001C2307.15 -14 2307.15 -14 2307.15 -28.5C2359.06 -58.4711 2521 -58.9712 2572.91 -29C2572.91 -15.5 2572.91 -17 2572.91 1.99996C2574.08 22.4772 2561.12 43.1724 2534.05 58.8028Z" fill="url(#paint55_linear_103_985)"/>
<circle r="108.535" transform="matrix(0.866025 0.5 -0.866025 0.5 2440.05 -25.4648)" fill="#001D32"/>
<circle r="108.035" transform="matrix(0.866025 0.5 -0.866025 0.5 2440.05 -25.4648)" stroke="#5364FF"/>
<circle r="91.8795" transform="matrix(0.866025 0.5 -0.866025 0.5 2440.05 -25.4647)" stroke="#5364FF"/>
<g filter="url(#filter9_f_103_985)">
<circle r="91.8795" transform="matrix(0.866025 0.5 -0.866025 0.5 2440.05 -25.4647)" stroke="#5364FF"/>
</g>
<g filter="url(#filter10_f_103_985)">
<circle r="91.8795" transform="matrix(0.866025 0.5 -0.866025 0.5 2440.05 -25.4647)" stroke="#5364FF"/>
</g>
<path d="M2199.57 61.4999L2299.57 56.7423L2535.57 193L2354.5 299.782L2119.07 163.856L2129.57 126L2199.57 61.4999Z" fill="url(#paint56_linear_103_985)"/>
<path d="M2322.05 173.803C2270.14 203.774 2185.97 203.774 2134.06 173.803C2108.75 159.19 2095.78 140.15 2095.15 121C2095.15 101 2095.15 101 2095.15 86.5C2147.06 56.5289 2309 56.0288 2360.91 86C2360.91 99.5 2360.91 98 2360.91 117C2362.08 137.477 2349.12 158.172 2322.05 173.803Z" fill="url(#paint57_linear_103_985)"/>
<circle r="108.535" transform="matrix(0.866025 0.5 -0.866025 0.5 2228.05 89.5352)" fill="#001D32"/>
<circle r="108.035" transform="matrix(0.866025 0.5 -0.866025 0.5 2228.05 89.5352)" stroke="#5364FF"/>
<circle r="91.8795" transform="matrix(0.866025 0.5 -0.866025 0.5 2228.05 89.5353)" stroke="#5364FF"/>
<g filter="url(#filter11_f_103_985)">
<circle r="91.8795" transform="matrix(0.866025 0.5 -0.866025 0.5 2228.05 89.5353)" stroke="#5364FF"/>
</g>
<g filter="url(#filter12_f_103_985)">
<circle r="91.8795" transform="matrix(0.866025 0.5 -0.866025 0.5 2228.05 89.5353)" stroke="#5364FF"/>
</g>
<path d="M2612.57 1188.5L2712.57 1183.74L2948.57 1320L2767.5 1426.78L2532.07 1290.86L2542.57 1253L2612.57 1188.5Z" fill="url(#paint58_linear_103_985)"/>
<path d="M2735.05 1300.8C2683.14 1330.77 2598.97 1330.77 2547.06 1300.8C2521.75 1286.19 2508.78 1267.15 2508.15 1248C2508.15 1228 2508.15 1228 2508.15 1213.5C2560.06 1183.53 2722 1183.03 2773.91 1213C2773.91 1226.5 2773.91 1225 2773.91 1244C2775.08 1264.48 2762.12 1285.17 2735.05 1300.8Z" fill="url(#paint59_linear_103_985)"/>
<circle r="108.535" transform="matrix(0.866025 0.5 -0.866025 0.5 2641.05 1216.54)" fill="#001D32"/>
<circle r="108.035" transform="matrix(0.866025 0.5 -0.866025 0.5 2641.05 1216.54)" stroke="#5364FF"/>
<circle r="91.8795" transform="matrix(0.866025 0.5 -0.866025 0.5 2641.05 1216.54)" stroke="#5364FF"/>
<g filter="url(#filter13_f_103_985)">
<circle r="91.8795" transform="matrix(0.866025 0.5 -0.866025 0.5 2641.05 1216.54)" stroke="#5364FF"/>
</g>
<g filter="url(#filter14_f_103_985)">
<circle r="91.8795" transform="matrix(0.866025 0.5 -0.866025 0.5 2641.05 1216.54)" stroke="#5364FF"/>
</g>
<path d="M2400.57 1303.5L2500.57 1298.74L2736.57 1435L2555.5 1541.78L2320.07 1405.86L2330.57 1368L2400.57 1303.5Z" fill="url(#paint60_linear_103_985)"/>
<path d="M2523.05 1415.8C2471.14 1445.77 2386.97 1445.77 2335.06 1415.8C2309.75 1401.19 2296.78 1382.15 2296.15 1363C2296.15 1343 2296.15 1343 2296.15 1328.5C2348.06 1298.53 2510 1298.03 2561.91 1328C2561.91 1341.5 2561.91 1340 2561.91 1359C2563.08 1379.48 2550.12 1400.17 2523.05 1415.8Z" fill="url(#paint61_linear_103_985)"/>
<circle r="108.535" transform="matrix(0.866025 0.5 -0.866025 0.5 2429.05 1331.54)" fill="#001D32"/>
<circle r="108.035" transform="matrix(0.866025 0.5 -0.866025 0.5 2429.05 1331.54)" stroke="#5364FF"/>
<circle r="91.8795" transform="matrix(0.866025 0.5 -0.866025 0.5 2429.05 1331.54)" stroke="#5364FF"/>
<g filter="url(#filter15_f_103_985)">
<circle r="91.8795" transform="matrix(0.866025 0.5 -0.866025 0.5 2429.05 1331.54)" stroke="#5364FF"/>
</g>
<g filter="url(#filter16_f_103_985)">
<circle r="91.8795" transform="matrix(0.866025 0.5 -0.866025 0.5 2429.05 1331.54)" stroke="#5364FF"/>
</g>
<path d="M2570.57 460.5L2670.57 455.742L2906.57 592L2725.5 698.782L2490.07 562.856L2500.57 525L2570.57 460.5Z" fill="url(#paint62_linear_103_985)"/>
<path d="M2693.05 572.803C2641.14 602.774 2556.97 602.774 2505.06 572.803C2479.75 558.19 2466.78 539.15 2466.15 520C2466.15 500 2466.15 500 2466.15 485.5C2518.06 455.529 2680 455.029 2731.91 485C2731.91 498.5 2731.91 497 2731.91 516C2733.08 536.477 2720.12 557.172 2693.05 572.803Z" fill="url(#paint63_linear_103_985)"/>
<circle r="108.535" transform="matrix(0.866025 0.5 -0.866025 0.5 2599.05 488.535)" fill="#001D32"/>
<circle r="108.035" transform="matrix(0.866025 0.5 -0.866025 0.5 2599.05 488.535)" stroke="#5364FF"/>
<circle r="91.8795" transform="matrix(0.866025 0.5 -0.866025 0.5 2599.05 488.535)" stroke="#5364FF"/>
<g filter="url(#filter17_f_103_985)">
<circle r="91.8795" transform="matrix(0.866025 0.5 -0.866025 0.5 2599.05 488.535)" stroke="#5364FF"/>
</g>
<g filter="url(#filter18_f_103_985)">
<circle r="91.8795" transform="matrix(0.866025 0.5 -0.866025 0.5 2599.05 488.535)" stroke="#5364FF"/>
</g>
<path opacity="0.1" fill-rule="evenodd" clip-rule="evenodd" d="M1619.22 243.4C1599.3 248.607 1588.67 262.733 1584.35 272.404C1583.05 275.301 1584.9 277.998 1587.73 279.116C1598.37 283.317 1604.34 293.852 1598.93 309.599C1595.09 320.797 1600.5 323.395 1606.79 326.413C1610.72 328.295 1614.98 330.341 1617.55 334.741C1619.42 337.954 1620.46 341.41 1621.48 344.812C1624.1 353.538 1626.62 361.911 1642.89 364.927C1657.32 367.602 1667.41 361.082 1676.52 355.195C1681.69 351.855 1686.54 348.719 1691.69 347.58C1705.93 344.434 1710.45 340.029 1720.77 325.31C1727.07 316.314 1737.97 315.612 1745.9 316.98C1749.39 317.582 1753.45 315.835 1754.61 312.496C1760.26 296.254 1760.73 277.322 1743.13 265.1C1735.55 259.839 1734.76 250.321 1733.91 240.041C1732.52 223.345 1730.96 204.636 1699.9 198.88C1669.28 193.205 1657.14 208.119 1645.52 222.387C1638.09 231.5 1630.89 240.349 1619.22 243.4ZM1671.6 241.901C1669.6 247.72 1664.9 251.866 1661.09 251.161C1657.29 250.456 1655.82 245.166 1657.82 239.347C1659.82 233.527 1664.52 229.381 1668.33 230.086C1672.13 230.792 1673.6 236.081 1671.6 241.901ZM1687.95 256.138C1691.75 256.844 1696.46 252.698 1698.46 246.878C1700.46 241.059 1698.99 235.769 1695.18 235.064C1691.38 234.359 1686.67 238.504 1684.68 244.324C1682.68 250.144 1684.14 255.433 1687.95 256.138Z" fill="#001D32"/>
</g>
<defs>
<filter id="filter0_f_103_985" x="1406" y="82.3196" width="558.242" height="423.68" filterUnits="userSpaceOnUse" color-interpolation-filters="sRGB">
<feFlood flood-opacity="0" result="BackgroundImageFix"/>
<feBlend mode="normal" in="SourceGraphic" in2="BackgroundImageFix" result="shape"/>
<feGaussianBlur stdDeviation="22" result="effect1_foregroundBlur_103_985"/>
</filter>
<filter id="filter1_f_103_985" x="888.746" y="604" width="1407.25" height="466" filterUnits="userSpaceOnUse" color-interpolation-filters="sRGB">
<feFlood flood-opacity="0" result="BackgroundImageFix"/>
<feBlend mode="normal" in="SourceGraphic" in2="BackgroundImageFix" result="shape"/>
<feGaussianBlur stdDeviation="27" result="effect1_foregroundBlur_103_985"/>
</filter>
<filter id="filter2_f_103_985" x="1097.13" y="360.883" width="125.799" height="119.077" filterUnits="userSpaceOnUse" color-interpolation-filters="sRGB">
<feFlood flood-opacity="0" result="BackgroundImageFix"/>
<feBlend mode="normal" in="SourceGraphic" in2="BackgroundImageFix" result="shape"/>
<feGaussianBlur stdDeviation="1.5" result="effect1_foregroundBlur_103_985"/>
</filter>
<filter id="filter3_f_103_985" x="1108.09" y="370.835" width="103.879" height="99.1726" filterUnits="userSpaceOnUse" color-interpolation-filters="sRGB">
<feFlood flood-opacity="0" result="BackgroundImageFix"/>
<feBlend mode="normal" in="SourceGraphic" in2="BackgroundImageFix" result="shape"/>
<feGaussianBlur stdDeviation="5" result="effect1_foregroundBlur_103_985"/>
</filter>
<filter id="filter4_f_103_985" x="1473.06" y="663.755" width="131.98" height="54.0291" filterUnits="userSpaceOnUse" color-interpolation-filters="sRGB">
<feFlood flood-opacity="0" result="BackgroundImageFix"/>
<feBlend mode="normal" in="SourceGraphic" in2="BackgroundImageFix" result="shape"/>
<feGaussianBlur stdDeviation="2.5" result="effect1_foregroundBlur_103_985"/>
</filter>
<filter id="filter5_f_103_985" x="2603.91" y="393.213" width="234.281" height="138.644" filterUnits="userSpaceOnUse" color-interpolation-filters="sRGB">
<feFlood flood-opacity="0" result="BackgroundImageFix"/>
<feBlend mode="normal" in="SourceGraphic" in2="BackgroundImageFix" result="shape"/>
<feGaussianBlur stdDeviation="2" result="effect1_foregroundBlur_103_985"/>
</filter>
<filter id="filter6_f_103_985" x="2602.91" y="392.213" width="236.281" height="140.644" filterUnits="userSpaceOnUse" color-interpolation-filters="sRGB">
<feFlood flood-opacity="0" result="BackgroundImageFix"/>
<feBlend mode="normal" in="SourceGraphic" in2="BackgroundImageFix" result="shape"/>
<feGaussianBlur stdDeviation="2.5" result="effect1_foregroundBlur_103_985"/>
</filter>
<filter id="filter7_f_103_985" x="2391.91" y="518.213" width="234.281" height="138.644" filterUnits="userSpaceOnUse" color-interpolation-filters="sRGB">
<feFlood flood-opacity="0" result="BackgroundImageFix"/>
<feBlend mode="normal" in="SourceGraphic" in2="BackgroundImageFix" result="shape"/>
<feGaussianBlur stdDeviation="2" result="effect1_foregroundBlur_103_985"/>
</filter>
<filter id="filter8_f_103_985" x="2390.91" y="517.213" width="236.281" height="140.644" filterUnits="userSpaceOnUse" color-interpolation-filters="sRGB">
<feFlood flood-opacity="0" result="BackgroundImageFix"/>
<feBlend mode="normal" in="SourceGraphic" in2="BackgroundImageFix" result="shape"/>
<feGaussianBlur stdDeviation="2.5" result="effect1_foregroundBlur_103_985"/>
</filter>
<filter id="filter9_f_103_985" x="2322.91" y="-94.7869" width="234.281" height="138.644" filterUnits="userSpaceOnUse" color-interpolation-filters="sRGB">
<feFlood flood-opacity="0" result="BackgroundImageFix"/>
<feBlend mode="normal" in="SourceGraphic" in2="BackgroundImageFix" result="shape"/>
<feGaussianBlur stdDeviation="2" result="effect1_foregroundBlur_103_985"/>
</filter>
<filter id="filter10_f_103_985" x="2321.91" y="-95.7869" width="236.281" height="140.644" filterUnits="userSpaceOnUse" color-interpolation-filters="sRGB">
<feFlood flood-opacity="0" result="BackgroundImageFix"/>
<feBlend mode="normal" in="SourceGraphic" in2="BackgroundImageFix" result="shape"/>
<feGaussianBlur stdDeviation="2.5" result="effect1_foregroundBlur_103_985"/>
</filter>
<filter id="filter11_f_103_985" x="2110.91" y="20.2131" width="234.281" height="138.644" filterUnits="userSpaceOnUse" color-interpolation-filters="sRGB">
<feFlood flood-opacity="0" result="BackgroundImageFix"/>
<feBlend mode="normal" in="SourceGraphic" in2="BackgroundImageFix" result="shape"/>
<feGaussianBlur stdDeviation="2" result="effect1_foregroundBlur_103_985"/>
</filter>
<filter id="filter12_f_103_985" x="2109.91" y="19.2131" width="236.281" height="140.644" filterUnits="userSpaceOnUse" color-interpolation-filters="sRGB">
<feFlood flood-opacity="0" result="BackgroundImageFix"/>
<feBlend mode="normal" in="SourceGraphic" in2="BackgroundImageFix" result="shape"/>
<feGaussianBlur stdDeviation="2.5" result="effect1_foregroundBlur_103_985"/>
</filter>
<filter id="filter13_f_103_985" x="2523.91" y="1147.21" width="234.281" height="138.645" filterUnits="userSpaceOnUse" color-interpolation-filters="sRGB">
<feFlood flood-opacity="0" result="BackgroundImageFix"/>
<feBlend mode="normal" in="SourceGraphic" in2="BackgroundImageFix" result="shape"/>
<feGaussianBlur stdDeviation="2" result="effect1_foregroundBlur_103_985"/>
</filter>
<filter id="filter14_f_103_985" x="2522.91" y="1146.21" width="236.281" height="140.645" filterUnits="userSpaceOnUse" color-interpolation-filters="sRGB">
<feFlood flood-opacity="0" result="BackgroundImageFix"/>
<feBlend mode="normal" in="SourceGraphic" in2="BackgroundImageFix" result="shape"/>
<feGaussianBlur stdDeviation="2.5" result="effect1_foregroundBlur_103_985"/>
</filter>
<filter id="filter15_f_103_985" x="2311.91" y="1262.21" width="234.281" height="138.645" filterUnits="userSpaceOnUse" color-interpolation-filters="sRGB">
<feFlood flood-opacity="0" result="BackgroundImageFix"/>
<feBlend mode="normal" in="SourceGraphic" in2="BackgroundImageFix" result="shape"/>
<feGaussianBlur stdDeviation="2" result="effect1_foregroundBlur_103_985"/>
</filter>
<filter id="filter16_f_103_985" x="2310.91" y="1261.21" width="236.281" height="140.645" filterUnits="userSpaceOnUse" color-interpolation-filters="sRGB">
<feFlood flood-opacity="0" result="BackgroundImageFix"/>
<feBlend mode="normal" in="SourceGraphic" in2="BackgroundImageFix" result="shape"/>
<feGaussianBlur stdDeviation="2.5" result="effect1_foregroundBlur_103_985"/>
</filter>
<filter id="filter17_f_103_985" x="2481.91" y="419.213" width="234.281" height="138.644" filterUnits="userSpaceOnUse" color-interpolation-filters="sRGB">
<feFlood flood-opacity="0" result="BackgroundImageFix"/>
<feBlend mode="normal" in="SourceGraphic" in2="BackgroundImageFix" result="shape"/>
<feGaussianBlur stdDeviation="2" result="effect1_foregroundBlur_103_985"/>
</filter>
<filter id="filter18_f_103_985" x="2480.91" y="418.213" width="236.281" height="140.644" filterUnits="userSpaceOnUse" color-interpolation-filters="sRGB">
<feFlood flood-opacity="0" result="BackgroundImageFix"/>
<feBlend mode="normal" in="SourceGraphic" in2="BackgroundImageFix" result="shape"/>
<feGaussianBlur stdDeviation="2.5" result="effect1_foregroundBlur_103_985"/>
</filter>
<linearGradient id="paint0_linear_103_985" x1="6929" y1="-33.0004" x2="1815" y2="-33.0003" gradientUnits="userSpaceOnUse">
<stop stop-color="#5364FF"/>
<stop stop-color="#5364FF"/>
<stop offset="1" stop-color="#5364FF" stop-opacity="0"/>
</linearGradient>
<linearGradient id="paint1_linear_103_985" x1="-57.1773" y1="-206.823" x2="420.126" y2="-179.213" gradientUnits="userSpaceOnUse">
<stop stop-color="#001829"/>
<stop offset="1" stop-color="#001829" stop-opacity="0"/>
</linearGradient>
<linearGradient id="paint2_linear_103_985" x1="-57.1773" y1="-206.823" x2="420.126" y2="-179.213" gradientUnits="userSpaceOnUse">
<stop stop-color="#001829"/>
<stop offset="1" stop-color="#001829" stop-opacity="0"/>
</linearGradient>
<linearGradient id="paint3_linear_103_985" x1="-57.1773" y1="-206.823" x2="420.126" y2="-179.213" gradientUnits="userSpaceOnUse">
<stop stop-color="#001829"/>
<stop offset="1" stop-color="#001829" stop-opacity="0"/>
</linearGradient>
<linearGradient id="paint4_linear_103_985" x1="-57.1773" y1="-206.823" x2="420.126" y2="-179.213" gradientUnits="userSpaceOnUse">
<stop stop-color="#001829"/>
<stop offset="1" stop-color="#001829" stop-opacity="0"/>
</linearGradient>
<linearGradient id="paint5_linear_103_985" x1="-57.1773" y1="-206.823" x2="420.126" y2="-179.213" gradientUnits="userSpaceOnUse">
<stop stop-color="#001829"/>
<stop offset="1" stop-color="#001829" stop-opacity="0"/>
</linearGradient>
<linearGradient id="paint6_linear_103_985" x1="-57.1773" y1="-206.823" x2="420.126" y2="-179.213" gradientUnits="userSpaceOnUse">
<stop stop-color="#001829"/>
<stop offset="1" stop-color="#001829" stop-opacity="0"/>
</linearGradient>
<linearGradient id="paint7_linear_103_985" x1="-57.1773" y1="-206.823" x2="420.126" y2="-179.213" gradientUnits="userSpaceOnUse">
<stop stop-color="#001829"/>
<stop offset="1" stop-color="#001829" stop-opacity="0"/>
</linearGradient>
<linearGradient id="paint8_linear_103_985" x1="-57.1773" y1="-206.823" x2="420.126" y2="-179.213" gradientUnits="userSpaceOnUse">
<stop stop-color="#001829"/>
<stop offset="1" stop-color="#001829" stop-opacity="0"/>
</linearGradient>
<linearGradient id="paint9_linear_103_985" x1="-57.1773" y1="-206.823" x2="420.126" y2="-179.213" gradientUnits="userSpaceOnUse">
<stop stop-color="#001829"/>
<stop offset="1" stop-color="#001829" stop-opacity="0"/>
</linearGradient>
<linearGradient id="paint10_linear_103_985" x1="-126.029" y1="-115.971" x2="449.222" y2="257.048" gradientUnits="userSpaceOnUse">
<stop stop-color="#00E3B4"/>
<stop offset="1" stop-color="#00E3B4" stop-opacity="0"/>
</linearGradient>
<linearGradient id="paint11_linear_103_985" x1="-57.1773" y1="-206.822" x2="263.014" y2="-135.109" gradientUnits="userSpaceOnUse">
<stop stop-color="#001829"/>
<stop offset="1" stop-color="#001829" stop-opacity="0"/>
</linearGradient>
<linearGradient id="paint12_linear_103_985" x1="-126.029" y1="-115.971" x2="449.222" y2="257.048" gradientUnits="userSpaceOnUse">
<stop stop-color="#00E3B4"/>
<stop offset="1" stop-color="#00E3B4" stop-opacity="0"/>
</linearGradient>
<linearGradient id="paint13_linear_103_985" x1="-357.969" y1="-304.031" x2="99.4538" y2="-420.318" gradientUnits="userSpaceOnUse">
<stop stop-color="#001829"/>
<stop offset="1" stop-color="#001829" stop-opacity="0"/>
</linearGradient>
<linearGradient id="paint14_linear_103_985" x1="-126.029" y1="-115.971" x2="449.222" y2="257.048" gradientUnits="userSpaceOnUse">
<stop stop-color="#00E3B4"/>
<stop offset="1" stop-color="#00E3B4" stop-opacity="0"/>
</linearGradient>
<linearGradient id="paint15_linear_103_985" x1="-186.068" y1="-279.932" x2="301.671" y2="-315.416" gradientUnits="userSpaceOnUse">
<stop stop-color="#001829"/>
<stop offset="1" stop-color="#001829" stop-opacity="0"/>
</linearGradient>
<linearGradient id="paint16_linear_103_985" x1="-126.029" y1="-115.971" x2="449.222" y2="257.048" gradientUnits="userSpaceOnUse">
<stop stop-color="#00E3B4"/>
<stop offset="1" stop-color="#00E3B4" stop-opacity="0"/>
</linearGradient>
<linearGradient id="paint17_linear_103_985" x1="-130.88" y1="-317.12" x2="350.343" y2="-266.871" gradientUnits="userSpaceOnUse">
<stop stop-color="#001829"/>
<stop offset="1" stop-color="#001829" stop-opacity="0"/>
</linearGradient>
<linearGradient id="paint18_linear_103_985" x1="-126.029" y1="-115.971" x2="449.222" y2="257.048" gradientUnits="userSpaceOnUse">
<stop stop-color="#00E3B4"/>
<stop offset="1" stop-color="#00E3B4" stop-opacity="0"/>
</linearGradient>
<linearGradient id="paint19_linear_103_985" x1="-126.029" y1="-115.971" x2="449.222" y2="257.048" gradientUnits="userSpaceOnUse">
<stop stop-color="#00E3B4"/>
<stop offset="1" stop-color="#00E3B4" stop-opacity="0"/>
</linearGradient>
<linearGradient id="paint20_linear_103_985" x1="-57.1773" y1="-206.823" x2="420.126" y2="-179.213" gradientUnits="userSpaceOnUse">
<stop stop-color="#001829"/>
<stop offset="1" stop-color="#001829" stop-opacity="0"/>
</linearGradient>
<linearGradient id="paint21_linear_103_985" x1="-126.029" y1="-115.971" x2="449.222" y2="257.048" gradientUnits="userSpaceOnUse">
<stop stop-color="#00E3B4"/>
<stop offset="1" stop-color="#00E3B4" stop-opacity="0"/>
</linearGradient>
<linearGradient id="paint22_linear_103_985" x1="-126.029" y1="-115.971" x2="449.222" y2="257.048" gradientUnits="userSpaceOnUse">
<stop stop-color="#00E3B4"/>
<stop offset="1" stop-color="#00E3B4" stop-opacity="0"/>
</linearGradient>
<linearGradient id="paint23_linear_103_985" x1="1596.24" y1="365.79" x2="1596.24" y2="1015.19" gradientUnits="userSpaceOnUse">
<stop offset="0.229167" stop-color="#001D32"/>
<stop offset="1" stop-color="#4B59D7"/>
</linearGradient>
<linearGradient id="paint24_linear_103_985" x1="1401.5" y1="262" x2="1390.5" y2="454" gradientUnits="userSpaceOnUse">
<stop stop-color="#5364FF"/>
<stop offset="1" stop-color="#5364FF" stop-opacity="0"/>
</linearGradient>
<linearGradient id="paint25_linear_103_985" x1="1596.24" y1="365.79" x2="1596.24" y2="1015.19" gradientUnits="userSpaceOnUse">
<stop offset="0.229167" stop-color="#001D32"/>
<stop offset="1" stop-color="#4B59D7"/>
</linearGradient>
<linearGradient id="paint26_linear_103_985" x1="1401.5" y1="262" x2="1390.5" y2="454" gradientUnits="userSpaceOnUse">
<stop stop-color="#5364FF"/>
<stop offset="1" stop-color="#5364FF" stop-opacity="0"/>
</linearGradient>
<linearGradient id="paint27_linear_103_985" x1="2104.5" y1="942.5" x2="1887.5" y2="791.5" gradientUnits="userSpaceOnUse">
<stop stop-color="#001D32"/>
<stop offset="1" stop-color="#001D32" stop-opacity="0"/>
</linearGradient>
<linearGradient id="paint28_linear_103_985" x1="1819" y1="371.5" x2="1943" y2="344" gradientUnits="userSpaceOnUse">
<stop offset="0.229167" stop-color="#001D32"/>
<stop offset="1" stop-color="#4B59D7"/>
</linearGradient>
<linearGradient id="paint29_linear_103_985" x1="1552" y1="551.5" x2="1624.5" y2="176.5" gradientUnits="userSpaceOnUse">
<stop offset="0.229167" stop-color="#001D32"/>
<stop offset="1" stop-color="#4B59D7"/>
</linearGradient>
<linearGradient id="paint30_linear_103_985" x1="1708" y1="373.5" x2="1629" y2="688.5" gradientUnits="userSpaceOnUse">
<stop stop-color="#00E3B4"/>
<stop offset="1" stop-color="#00E3B4" stop-opacity="0"/>
</linearGradient>
<linearGradient id="paint31_linear_103_985" x1="1608" y1="949" x2="1629" y2="688.5" gradientUnits="userSpaceOnUse">
<stop stop-color="#00E3B4"/>
<stop offset="1" stop-color="#00E3B4" stop-opacity="0"/>
</linearGradient>
<linearGradient id="paint32_linear_103_985" x1="1069.5" y1="390.5" x2="1246" y2="582" gradientUnits="userSpaceOnUse">
<stop stop-color="#001D32"/>
<stop offset="1" stop-color="#001D32" stop-opacity="0"/>
</linearGradient>
<linearGradient id="paint33_linear_103_985" x1="1059.01" y1="412.492" x2="1486.41" y2="430.309" gradientUnits="userSpaceOnUse">
<stop offset="0.229167" stop-color="#001D32"/>
<stop offset="1" stop-color="#4B59D7"/>
</linearGradient>
<linearGradient id="paint34_linear_103_985" x1="1342.29" y1="392.063" x2="996.557" y2="452.227" gradientUnits="userSpaceOnUse">
<stop offset="0.229167" stop-color="#001D32"/>
<stop offset="1" stop-color="#4B59D7"/>
</linearGradient>
<linearGradient id="paint35_linear_103_985" x1="1095.49" y1="431.463" x2="1555.37" y2="357.097" gradientUnits="userSpaceOnUse">
<stop offset="0.229167" stop-color="#001D32"/>
<stop offset="1" stop-color="#4B59D7"/>
</linearGradient>
<linearGradient id="paint36_linear_103_985" x1="985.103" y1="420.957" x2="1436.83" y2="376.084" gradientUnits="userSpaceOnUse">
<stop offset="0.229167" stop-color="#001D32"/>
<stop offset="1" stop-color="#4B59D7"/>
</linearGradient>
<linearGradient id="paint37_linear_103_985" x1="1879" y1="651" x2="1939" y2="728.5" gradientUnits="userSpaceOnUse">
<stop stop-color="#001D32"/>
<stop offset="1" stop-color="#001D32" stop-opacity="0"/>
</linearGradient>
<linearGradient id="paint38_linear_103_985" x1="1905" y1="699" x2="1905" y2="581.5" gradientUnits="userSpaceOnUse">
<stop offset="0.229167" stop-color="#001D32"/>
<stop offset="1" stop-color="#4B59D7"/>
</linearGradient>
<linearGradient id="paint39_linear_103_985" x1="2012" y1="680" x2="2072" y2="757.5" gradientUnits="userSpaceOnUse">
<stop stop-color="#001D32"/>
<stop offset="1" stop-color="#001D32" stop-opacity="0"/>
</linearGradient>
<linearGradient id="paint40_linear_103_985" x1="2038" y1="728" x2="2038" y2="610.5" gradientUnits="userSpaceOnUse">
<stop offset="0.229167" stop-color="#001D32"/>
<stop offset="1" stop-color="#4B59D7"/>
</linearGradient>
<linearGradient id="paint41_linear_103_985" x1="1913" y1="525" x2="1973" y2="602.5" gradientUnits="userSpaceOnUse">
<stop stop-color="#001D32"/>
<stop offset="1" stop-color="#001D32" stop-opacity="0"/>
</linearGradient>
<linearGradient id="paint42_linear_103_985" x1="1939" y1="573" x2="1939" y2="455.5" gradientUnits="userSpaceOnUse">
<stop offset="0.229167" stop-color="#001D32"/>
<stop offset="1" stop-color="#4B59D7"/>
</linearGradient>
<linearGradient id="paint43_linear_103_985" x1="2046" y1="554" x2="2106" y2="631.5" gradientUnits="userSpaceOnUse">
<stop stop-color="#001D32"/>
<stop offset="1" stop-color="#001D32" stop-opacity="0"/>
</linearGradient>
<linearGradient id="paint44_linear_103_985" x1="2072" y1="602" x2="2072" y2="484.5" gradientUnits="userSpaceOnUse">
<stop offset="0.229167" stop-color="#001D32"/>
<stop offset="1" stop-color="#4B59D7"/>
</linearGradient>
<linearGradient id="paint45_linear_103_985" x1="1234.5" y1="400" x2="1395.5" y2="576.5" gradientUnits="userSpaceOnUse">
<stop stop-color="#001D32"/>
<stop offset="1" stop-color="#001D32" stop-opacity="0"/>
</linearGradient>
<linearGradient id="paint46_linear_103_985" x1="1949.5" y1="426" x2="1703" y2="535.5" gradientUnits="userSpaceOnUse">
<stop stop-color="#001D32"/>
<stop offset="1" stop-color="#001D32" stop-opacity="0"/>
</linearGradient>
<linearGradient id="paint47_linear_103_985" x1="1529" y1="625.5" x2="1522.15" y2="720.083" gradientUnits="userSpaceOnUse">
<stop stop-color="#021F36"/>
<stop offset="1" stop-color="#021F36" stop-opacity="0"/>
</linearGradient>
<linearGradient id="paint48_linear_103_985" x1="1538.58" y1="742.036" x2="1523.2" y2="560.172" gradientUnits="userSpaceOnUse">
<stop offset="0.229167" stop-color="#001D32"/>
<stop offset="1" stop-color="#4B59D7"/>
</linearGradient>
<linearGradient id="paint49_linear_103_985" x1="1538.8" y1="722.645" x2="1526.78" y2="568.94" gradientUnits="userSpaceOnUse">
<stop offset="0.229167" stop-color="#001D32"/>
<stop offset="1" stop-color="#4B59D7"/>
</linearGradient>
<linearGradient id="paint50_linear_103_985" x1="2573.07" y1="480" x2="2901.07" y2="602.5" gradientUnits="userSpaceOnUse">
<stop stop-color="#001D32"/>
<stop offset="1" stop-color="#001D32" stop-opacity="0"/>
</linearGradient>
<linearGradient id="paint51_linear_103_985" x1="2815.05" y1="438.268" x2="2678.15" y2="680.037" gradientUnits="userSpaceOnUse">
<stop offset="0.229167" stop-color="#001D32"/>
<stop offset="1" stop-color="#4B59D7"/>
</linearGradient>
<linearGradient id="paint52_linear_103_985" x1="2361.07" y1="605" x2="2689.07" y2="727.5" gradientUnits="userSpaceOnUse">
<stop stop-color="#001D32"/>
<stop offset="1" stop-color="#001D32" stop-opacity="0"/>
</linearGradient>
<linearGradient id="paint53_linear_103_985" x1="2603.05" y1="563.268" x2="2466.15" y2="805.037" gradientUnits="userSpaceOnUse">
<stop offset="0.229167" stop-color="#001D32"/>
<stop offset="1" stop-color="#4B59D7"/>
</linearGradient>
<linearGradient id="paint54_linear_103_985" x1="2292.07" y1="-8.00013" x2="2620.07" y2="114.5" gradientUnits="userSpaceOnUse">
<stop stop-color="#001D32"/>
<stop offset="1" stop-color="#001D32" stop-opacity="0"/>
</linearGradient>
<linearGradient id="paint55_linear_103_985" x1="2534.05" y1="-49.7324" x2="2397.15" y2="192.037" gradientUnits="userSpaceOnUse">
<stop offset="0.229167" stop-color="#001D32"/>
<stop offset="1" stop-color="#4B59D7"/>
</linearGradient>
<linearGradient id="paint56_linear_103_985" x1="2080.07" y1="107" x2="2408.07" y2="229.5" gradientUnits="userSpaceOnUse">
<stop stop-color="#001D32"/>
<stop offset="1" stop-color="#001D32" stop-opacity="0"/>
</linearGradient>
<linearGradient id="paint57_linear_103_985" x1="2322.05" y1="65.2676" x2="2185.15" y2="307.037" gradientUnits="userSpaceOnUse">
<stop offset="0.229167" stop-color="#001D32"/>
<stop offset="1" stop-color="#4B59D7"/>
</linearGradient>
<linearGradient id="paint58_linear_103_985" x1="2493.07" y1="1234" x2="2821.07" y2="1356.5" gradientUnits="userSpaceOnUse">
<stop stop-color="#001D32"/>
<stop offset="1" stop-color="#001D32" stop-opacity="0"/>
</linearGradient>
<linearGradient id="paint59_linear_103_985" x1="2735.05" y1="1192.27" x2="2598.15" y2="1434.04" gradientUnits="userSpaceOnUse">
<stop offset="0.229167" stop-color="#001D32"/>
<stop offset="1" stop-color="#4B59D7"/>
</linearGradient>
<linearGradient id="paint60_linear_103_985" x1="2281.07" y1="1349" x2="2609.07" y2="1471.5" gradientUnits="userSpaceOnUse">
<stop stop-color="#001D32"/>
<stop offset="1" stop-color="#001D32" stop-opacity="0"/>
</linearGradient>
<linearGradient id="paint61_linear_103_985" x1="2523.05" y1="1307.27" x2="2386.15" y2="1549.04" gradientUnits="userSpaceOnUse">
<stop offset="0.229167" stop-color="#001D32"/>
<stop offset="1" stop-color="#4B59D7"/>
</linearGradient>
<linearGradient id="paint62_linear_103_985" x1="2451.07" y1="506" x2="2779.07" y2="628.5" gradientUnits="userSpaceOnUse">
<stop stop-color="#001D32"/>
<stop offset="1" stop-color="#001D32" stop-opacity="0"/>
</linearGradient>
<linearGradient id="paint63_linear_103_985" x1="2693.05" y1="464.268" x2="2556.15" y2="706.037" gradientUnits="userSpaceOnUse">
<stop offset="0.229167" stop-color="#001D32"/>
<stop offset="1" stop-color="#4B59D7"/>
</linearGradient>
<clipPath id="clip0_103_985">
<rect width="3160.47" height="1309" fill="white"/>
</clipPath>
</defs>
</svg>
